<?xml version="1.0" standalone="no"?>
<!DOCTYPE svg PUBLIC "-//W3C//DTD SVG 20010904//EN"
 "http://www.w3.org/TR/2001/REC-SVG-20010904/DTD/svg10.dtd">
<svg version="1.0" xmlns="http://www.w3.org/2000/svg"
 width="723.000000pt" height="723.000000pt" viewBox="0 0 723.000000 723.000000"
 preserveAspectRatio="xMidYMid meet">

<g transform="translate(0.000000,723.000000) scale(0.100000,-0.100000)"
fill="#000000" stroke="none">
<path d="M857 6566 c-89 -32 -163 -107 -192 -195 -13 -42 -15 -289 -13 -2231
l3 -2185 27 -51 c32 -61 94 -119 157 -147 38 -17 72 -22 203 -25 l156 -4 29
55 c78 154 192 244 446 353 l68 29 -328 5 -328 5 0 1610 0 1610 2625 0 2625 0
0 -1610 0 -1610 -329 -5 -328 -5 121 -54 c67 -30 148 -70 179 -91 76 -49 175
-157 213 -232 l30 -60 157 4 c131 3 165 8 203 25 63 28 125 86 157 147 l27 51
3 2187 2 2187 -21 56 c-28 74 -99 146 -174 174 l-56 21 -2812 0 c-2341 -1
-2818 -3 -2850 -14z m1683 -578 l0 -208 -727 3 -728 2 -1 200 c-1 110 0 202 1
205 2 3 330 5 729 5 l726 0 0 -207z m2468 183 c96 -49 137 -161 97 -259 -64
-151 -273 -167 -360 -27 -84 135 12 305 172 305 33 0 68 -7 91 -19z m629 -14
c89 -62 114 -182 57 -273 -38 -62 -97 -94 -171 -94 -217 0 -281 279 -88 384
48 26 152 18 202 -17z m581 14 c70 -36 112 -104 112 -181 0 -202 -268 -278
-375 -106 -84 136 12 306 172 306 33 0 68 -7 91 -19z"/>
<path d="M3495 4551 c-87 -39 -101 -67 -208 -433 l-35 -117 52 -10 c144 -29
216 -36 406 -36 190 0 262 7 406 36 l52 10 -35 117 c-86 293 -103 342 -136
379 -57 64 -89 73 -287 73 -148 0 -181 -3 -215 -19z"/>
<path d="M3085 3438 c-12 -34 -155 -523 -155 -529 0 -10 166 -64 290 -94 121
-29 290 -53 405 -57 l80 -3 3 313 2 312 -57 0 c-97 0 -281 20 -420 46 -155 28
-143 27 -148 12z"/>
<path d="M4185 3427 c-60 -11 -111 -21 -112 -22 -2 -1 131 -495 153 -567 4
-14 11 -15 42 -6 78 20 222 70 222 77 0 4 -35 126 -79 271 -66 223 -81 265
-97 266 -10 1 -68 -8 -129 -19z"/>
<path d="M2700 2142 c-68 -233 -70 -262 -30 -327 28 -45 148 -104 340 -168
469 -157 931 -157 1398 -1 199 66 313 123 341 168 41 66 39 95 -29 328 l-63
215 -120 -39 c-66 -21 -125 -38 -133 -38 -23 0 -22 -13 7 -115 16 -54 25 -103
20 -108 -15 -15 -151 -57 -250 -77 -112 -22 -283 -40 -393 -40 l-78 0 0 124 0
123 -142 6 c-223 9 -457 52 -688 126 l-117 38 -63 -215z"/>
<path d="M1966 1896 c-280 -124 -347 -158 -382 -192 -64 -62 -87 -114 -92
-211 -4 -75 -2 -87 25 -145 52 -110 58 -114 668 -384 1567 -695 1433 -638
1511 -642 58 -3 82 0 131 20 33 14 486 213 1008 444 1052 465 1016 446 1070
565 24 55 27 70 23 144 -5 100 -40 171 -111 225 -42 32 -713 338 -721 329 -2
-2 1 -33 7 -68 28 -175 -65 -384 -215 -484 -153 -101 -542 -228 -838 -274
-160 -24 -520 -24 -680 0 -297 46 -680 171 -837 274 -134 88 -217 245 -218
413 0 47 3 97 8 113 5 19 4 27 -5 26 -7 -1 -166 -69 -352 -153z"/>
</g>
</svg>
