<?xml version="1.0" encoding="UTF-8" standalone="no" ?>
<!DOCTYPE svg PUBLIC "-//W3C//DTD SVG 1.1//EN" "http://www.w3.org/Graphics/SVG/1.1/DTD/svg11.dtd">
<svg xmlns="http://www.w3.org/2000/svg" xmlns:xlink="http://www.w3.org/1999/xlink" version="1.1" width="1200" height="540" viewBox="0 0 1200 540" xml:space="preserve">
<desc>Created with Fabric.js 5.2.4</desc>
<defs>
</defs>
<g transform="matrix(1 0 0 1 600 270)" id="257afd89-28f1-452b-9722-a54a8e5ff5ef"  >
<rect style="stroke: none; stroke-width: 1; stroke-dasharray: none; stroke-linecap: butt; stroke-dashoffset: 0; stroke-linejoin: miter; stroke-miterlimit: 4; fill: rgb(255,255,255); fill-rule: nonzero; opacity: 1; visibility: hidden;" vector-effect="non-scaling-stroke"  x="-600" y="-270" rx="0" ry="0" width="1200" height="540" />
</g>
<g transform="matrix(Infinity NaN NaN Infinity 0 0)" id="3971b734-b972-448d-ba6f-a99131582684"  >
</g>
<g transform="matrix(2.12 0 0 2.12 600 270)"  >
<g style="" vector-effect="non-scaling-stroke"   >
		<g transform="matrix(0.96 0 0 0.96 0 -22.69)"  >
<rect style="stroke: none; stroke-width: 1; stroke-dasharray: none; stroke-linecap: butt; stroke-dashoffset: 0; stroke-linejoin: miter; stroke-miterlimit: 4; fill: none; fill-rule: nonzero; opacity: 1;" vector-effect="non-scaling-stroke"  x="-280" y="-77.97" rx="0" ry="0" width="560" height="155.94" />
</g>
		<g transform="matrix(0.96 0 0 0.96 -1.73 -26.59)"  >
<path style="stroke: none; stroke-width: 1; stroke-dasharray: none; stroke-linecap: butt; stroke-dashoffset: 0; stroke-linejoin: miter; stroke-miterlimit: 4; fill: rgb(0,0,0); fill-rule: nonzero; opacity: 1;" vector-effect="non-scaling-stroke"  transform=" translate(-1024.87, -73.92)" d="M 779.927 121.323 L 748.597 121.323 L 774.957 74.133 L 749.427 26.382999999999996 L 780.7470000000001 26.382999999999996 L 791.927 51.772999999999996 L 803.107 26.382999999999996 L 834.987 26.382999999999996 L 809.317 74.133 L 835.817 121.323 L 803.937 121.323 L 791.927 96.34299999999999 Z M 867.967 121.323 L 837.467 121.323 L 837.467 26.242999999999995 L 869.627 26.242999999999995 Q 893.087 26.242999999999995 905.0169999999999 33.90299999999999 Q 916.957 41.56299999999999 916.957 56.462999999999994 Q 916.957 66.81299999999999 911.787 74.06299999999999 Q 906.6070000000001 81.30299999999998 897.2270000000001 85.10299999999998 Q 887.8370000000001 88.89299999999999 875.147 88.89299999999999 L 867.9670000000001 88.89299999999999 Z M 867.967 69.713 L 873.8969999999999 69.713 Q 881.217 69.713 885.217 66.67299999999999 Q 889.217 63.64299999999999 889.217 57.572999999999986 Q 889.217 51.91299999999998 885.357 49.082999999999984 Q 881.487 46.252999999999986 874.177 46.252999999999986 L 867.967 46.252999999999986 Z M 965.117 123.53299999999999 Q 951.317 123.53299999999999 940.827 118.56299999999999 Q 930.347 113.59299999999999 924.547 104.28299999999999 Q 918.7470000000001 94.963 918.7470000000001 81.993 L 918.7470000000001 26.382999999999996 L 949.3870000000001 26.382999999999996 L 949.3870000000001 80.613 Q 949.3870000000001 89.863 953.8770000000001 94.203 Q 958.3570000000001 98.553 965.667 98.553 Q 973.397 98.553 977.467 94.143 Q 981.537 89.723 981.537 81.993 L 981.537 26.382999999999996 L 1012.587 26.382999999999996 L 1012.587 81.993 Q 1012.587 94.273 1006.5169999999999 103.663 Q 1000.4469999999999 113.04299999999999 989.757 118.29299999999999 Q 979.0569999999999 123.53299999999999 965.117 123.53299999999999 M 1064.757 123.53299999999999 Q 1049.847 123.53299999999999 1038.877 117.463 Q 1027.907 111.393 1021.837 100.62299999999999 Q 1015.7669999999999 89.86299999999999 1015.7669999999999 75.78299999999999 Q 1015.7669999999999 60.74299999999999 1022.117 49.15299999999999 Q 1028.4569999999999 37.56299999999999 1039.917 30.932999999999993 Q 1051.367 24.31299999999999 1066.547 24.31299999999999 Q 1083.107 24.31299999999999 1092.907 30.932999999999993 L 1088.7669999999998 52.602999999999994 Q 1080.0769999999998 48.873 1070.687 48.873 Q 1059.377 48.873 1052.887 55.632999999999996 Q 1046.397 62.40299999999999 1046.397 74.40299999999999 Q 1046.397 86.553 1052.2669999999998 93.31299999999999 Q 1058.1269999999997 100.073 1067.2369999999999 100.073 Q 1070.5469999999998 100.073 1072.7569999999998 99.523 L 1072.7569999999998 75.923 L 1096.637 73.163 L 1096.637 116.353 Q 1088.767 119.943 1080.627 121.743 Q 1072.4869999999999 123.533 1064.757 123.533 M 1129.617 121.32300000000001 L 1104.2269999999999 121.32300000000001 L 1104.2269999999999 26.38300000000001 L 1131.8269999999998 26.38300000000001 L 1169.0869999999998 76.75300000000001 L 1169.0869999999998 26.383000000000017 L 1194.4769999999999 26.383000000000017 L 1194.4769999999999 121.32300000000001 L 1166.877 121.32300000000001 L 1129.617 73.02300000000001 Z M 1250.367 123.533 Q 1235.327 123.533 1223.867 117.183 Q 1212.417 110.83300000000001 1205.997 99.66300000000001 Q 1199.577 88.483 1199.577 73.99300000000001 Q 1199.577 59.36300000000001 1205.997 48.18300000000001 Q 1212.4170000000001 37.00300000000001 1223.867 30.663000000000007 Q 1235.327 24.31300000000001 1250.367 24.31300000000001 Q 1265.407 24.31300000000001 1276.857 30.59300000000001 Q 1288.317 36.87300000000001 1294.737 48.043000000000006 Q 1301.1470000000002 59.223000000000006 1301.1470000000002 73.99300000000001 Q 1301.1470000000002 88.483 1294.737 99.66300000000001 Q 1288.317 110.83300000000001 1276.857 117.183 Q 1265.407 123.533 1250.367 123.533 M 1250.367 98.413 Q 1259.057 98.413 1264.647 91.65299999999999 Q 1270.2369999999999 84.89299999999999 1270.2369999999999 73.853 Q 1270.2369999999999 66.40299999999999 1267.687 60.742999999999995 Q 1265.127 55.083 1260.647 51.842999999999996 Q 1256.157 48.602999999999994 1250.2269999999999 48.602999999999994 Q 1241.5369999999998 48.602999999999994 1236.0169999999998 55.562999999999995 Q 1230.4969999999998 62.532999999999994 1230.4969999999998 73.853 Q 1230.4969999999998 84.893 1236.0169999999998 91.65299999999999 Q 1241.5369999999998 98.41299999999998 1250.3669999999997 98.413" stroke-linecap="round" />
</g>
		<g transform="matrix(0.96 0 0 0.96 0.01 79.89)"  >
<rect style="stroke: none; stroke-width: 1; stroke-dasharray: none; stroke-linecap: butt; stroke-dashoffset: 0; stroke-linejoin: miter; stroke-miterlimit: 4; fill: none; fill-rule: nonzero; opacity: 1;" vector-effect="non-scaling-stroke"  x="-157.2285" y="-18.645" rx="0" ry="0" width="314.457" height="37.29" />
</g>
		<g transform="matrix(0.96 0 0 0.96 0.01 81.03)"  >
<path style="stroke: none; stroke-width: 1; stroke-dasharray: none; stroke-linecap: butt; stroke-dashoffset: 0; stroke-linejoin: miter; stroke-miterlimit: 4; fill: rgb(0,0,0); fill-rule: nonzero; opacity: 1;" vector-effect="non-scaling-stroke"  transform=" translate(-1026.68, -185.53)" d="M 918.797 200.663 L 916.157 200.663 L 916.157 176.90300000000002 L 918.397 176.90300000000002 L 918.567 179.01300000000003 Q 919.427 177.79300000000003 920.627 177.10300000000004 Q 921.837 176.41300000000004 923.317 176.41300000000004 Q 924.5070000000001 176.41300000000004 925.527 176.89300000000003 Q 926.547 177.36300000000003 927.297 178.42300000000003 Q 928.037 179.48300000000003 928.447 181.21300000000002 Q 928.857 182.943 928.857 185.45300000000003 Q 928.857 190.13300000000004 927.207 192.59300000000002 Q 925.557 195.053 922.457 195.05300000000003 Q 921.307 195.05300000000003 920.377 194.66300000000004 Q 919.457 194.26300000000003 918.7969999999999 193.57300000000004 Z M 922.687 178.58300000000003 Q 921.537 178.58300000000003 920.597 179.23300000000003 Q 919.6569999999999 179.87300000000002 918.797 181.03300000000004 L 918.797 191.49300000000005 Q 919.557 192.31300000000005 920.3670000000001 192.69300000000004 Q 921.1770000000001 193.07300000000004 921.927 193.07300000000004 Q 922.8870000000001 193.07300000000004 923.647 192.66300000000004 Q 924.407 192.25300000000004 924.947 191.32300000000004 Q 925.497 190.40300000000005 925.797 188.91300000000004 Q 926.087 187.43300000000005 926.087 185.28300000000004 Q 926.087 183.30300000000005 925.857 182.02300000000005 Q 925.627 180.73300000000006 925.187 179.97300000000004 Q 924.737 179.21300000000005 924.107 178.90300000000005 Q 923.487 178.58300000000006 922.687 178.58300000000006 M 936.217 194.72300000000007 L 933.577 194.72300000000007 L 933.577 176.90300000000008 L 935.987 176.90300000000008 L 936.087 179.41300000000007 Q 936.747 177.92300000000006 937.7669999999999 177.20300000000006 Q 938.7969999999999 176.47300000000007 940.0469999999999 176.47300000000007 Q 940.507 176.47300000000007 940.8369999999999 176.51300000000006 Q 941.1669999999999 176.54300000000006 941.6369999999998 176.70300000000006 L 940.9769999999999 179.18300000000005 Q 940.6769999999999 179.11300000000006 940.3669999999998 179.06300000000005 Q 940.0469999999998 179.01300000000003 939.6569999999998 179.01300000000003 Q 938.9969999999998 179.01300000000003 938.4769999999999 179.29300000000003 Q 937.9669999999999 179.57300000000004 937.5569999999999 180.07300000000004 Q 937.1469999999999 180.56300000000005 936.8169999999999 181.21300000000002 Q 936.4869999999999 181.853 936.2169999999999 182.54300000000003 Z M 955.3969999999999 190.43300000000008 L 957.477 191.72300000000007 Q 956.617 193.07300000000006 955.067 194.06300000000007 Q 953.517 195.05300000000008 951.207 195.05300000000008 Q 949.587 195.05300000000008 948.2669999999999 194.5130000000001 Q 946.9469999999999 193.96300000000008 945.987 192.8430000000001 Q 945.027 191.72300000000013 944.507 190.0230000000001 Q 943.977 188.32300000000012 943.977 185.98300000000012 Q 943.977 183.47300000000013 944.5169999999999 181.6530000000001 Q 945.0669999999999 179.8430000000001 946.0369999999999 178.67300000000012 Q 947.007 177.50300000000013 948.3169999999999 176.95300000000012 Q 949.6169999999998 176.41300000000012 951.1069999999999 176.41300000000012 Q 952.7569999999998 176.41300000000012 953.9869999999999 176.95300000000012 Q 955.2269999999999 177.50300000000013 956.0569999999999 178.70300000000012 Q 956.877 179.9030000000001 957.2869999999999 181.79300000000012 Q 957.7069999999999 183.67300000000012 957.7069999999999 186.34300000000013 L 946.6769999999999 186.34300000000013 Q 946.7169999999999 188.22300000000013 947.0969999999999 189.49300000000014 Q 947.4769999999999 190.76300000000015 948.0969999999999 191.52300000000014 Q 948.7269999999999 192.28300000000013 949.5669999999999 192.61300000000014 Q 950.4069999999999 192.94300000000015 951.3669999999998 192.94300000000015 Q 952.1569999999998 192.94300000000015 952.8069999999999 192.69300000000015 Q 953.4469999999999 192.44300000000015 953.9369999999999 192.08300000000014 Q 954.4369999999999 191.72300000000013 954.7969999999999 191.27300000000014 Q 955.1669999999999 190.83300000000014 955.3969999999999 190.43300000000013 M 951.107 178.45300000000015 Q 949.257 178.45300000000015 948.137 179.84300000000013 Q 947.007 181.22300000000013 946.747 184.23300000000012 L 954.967 184.23300000000012 Q 954.8969999999999 182.6130000000001 954.617 181.51300000000012 Q 954.337 180.4030000000001 953.847 179.72300000000013 Q 953.347 179.05300000000014 952.667 178.75300000000013 Q 951.9970000000001 178.45300000000012 951.1070000000001 178.45300000000012 M 969.3870000000001 192.38300000000012 L 970.047 194.39300000000011 Q 968.787 194.92300000000012 967.2370000000001 194.92300000000012 Q 965.0670000000001 194.92300000000012 963.9370000000001 193.73300000000012 Q 962.8170000000001 192.54300000000012 962.8170000000001 190.4630000000001 L 962.8170000000001 179.0530000000001 L 960.0170000000002 179.0530000000001 L 960.3470000000002 176.9030000000001 L 962.8470000000002 176.9030000000001 L 963.0170000000002 172.6130000000001 L 965.4570000000002 172.6130000000001 L 965.4570000000002 176.9030000000001 L 969.2870000000003 176.9030000000001 L 969.2870000000003 179.0530000000001 L 965.4570000000002 179.0530000000001 L 965.4570000000002 190.3330000000001 Q 965.4570000000002 191.6530000000001 966.0570000000002 192.1830000000001 Q 966.6470000000003 192.7130000000001 967.6670000000003 192.7130000000001 Q 968.1670000000003 192.7130000000001 968.5070000000003 192.6330000000001 Q 968.8570000000003 192.5430000000001 969.3870000000003 192.3830000000001 M 980.4170000000003 192.3830000000001 L 981.0770000000002 194.3930000000001 Q 979.8270000000002 194.9230000000001 978.2770000000003 194.9230000000001 Q 976.0970000000003 194.9230000000001 974.9770000000003 193.7330000000001 Q 973.8470000000003 192.5430000000001 973.8470000000003 190.46300000000008 L 973.8470000000003 179.05300000000008 L 971.0470000000004 179.05300000000008 L 971.3770000000004 176.90300000000008 L 973.8870000000004 176.90300000000008 L 974.0470000000004 172.61300000000008 L 976.4870000000004 172.61300000000008 L 976.4870000000004 176.90300000000008 L 980.3170000000005 176.90300000000008 L 980.3170000000005 179.05300000000008 L 976.4870000000004 179.05300000000008 L 976.4870000000004 190.33300000000008 Q 976.4870000000004 191.65300000000008 977.0870000000004 192.18300000000008 Q 977.6770000000005 192.71300000000008 978.6970000000005 192.71300000000008 Q 979.1970000000005 192.71300000000008 979.5470000000005 192.63300000000007 Q 979.8870000000005 192.54300000000006 980.4170000000005 192.38300000000007 M 996.3470000000004 176.90300000000008 L 991.2970000000005 194.8230000000001 Q 990.8970000000005 196.27300000000008 990.4870000000005 197.3930000000001 Q 990.0770000000006 198.52300000000008 989.5170000000005 199.28300000000007 Q 988.9570000000006 200.03300000000007 988.1670000000005 200.45300000000006 Q 987.3670000000005 200.86300000000006 986.2170000000004 200.86300000000006 Q 985.4570000000004 200.86300000000006 984.7170000000004 200.63300000000007 Q 983.9670000000004 200.40300000000008 983.5070000000004 200.07300000000006 L 984.4370000000004 198.32300000000006 Q 985.3570000000003 198.81300000000007 986.1470000000004 198.81300000000007 Q 986.6770000000004 198.81300000000007 987.0570000000004 198.62300000000008 Q 987.4370000000004 198.4230000000001 987.7370000000003 197.94300000000007 Q 988.0270000000003 197.46300000000008 988.2770000000003 196.67300000000006 Q 988.5270000000003 195.88300000000004 988.8270000000002 194.72300000000007 L 987.6670000000003 194.72300000000007 L 981.8970000000003 176.90300000000008 L 984.6670000000003 176.90300000000008 L 989.4870000000003 192.81300000000007 L 993.8070000000004 176.90300000000008 Z M 1011.4370000000005 185.78300000000007 Q 1011.4370000000005 189.54300000000006 1012.6570000000005 191.26300000000006 Q 1013.8770000000005 192.97300000000007 1015.9270000000005 192.97300000000007 Q 1017.3470000000004 192.97300000000007 1018.2670000000005 192.30300000000008 Q 1019.1970000000005 191.62300000000008 1020.0470000000005 190.2030000000001 L 1022.1970000000005 191.59300000000007 Q 1021.2370000000004 193.10300000000007 1019.6670000000005 194.13300000000007 Q 1018.1070000000005 195.15300000000008 1015.8970000000005 195.15300000000008 Q 1014.4070000000005 195.15300000000008 1013.1070000000005 194.6430000000001 Q 1011.7970000000006 194.1330000000001 1010.8070000000006 193.0130000000001 Q 1009.8170000000006 191.8830000000001 1009.2470000000006 190.1230000000001 Q 1008.6670000000006 188.3530000000001 1008.6670000000006 185.8430000000001 Q 1008.6670000000006 183.4030000000001 1009.2270000000005 181.6230000000001 Q 1009.7870000000005 179.8430000000001 1010.7770000000005 178.6830000000001 Q 1011.7670000000005 177.5330000000001 1013.1070000000005 176.9730000000001 Q 1014.4370000000006 176.4130000000001 1015.9870000000005 176.4130000000001 Q 1017.8770000000005 176.4130000000001 1019.2570000000005 177.05300000000008 Q 1020.6470000000005 177.69300000000007 1021.8370000000006 179.28300000000007 L 1019.7870000000006 180.76300000000006 Q 1018.9270000000006 179.51300000000006 1018.0570000000006 179.01300000000006 Q 1017.1770000000006 178.52300000000005 1015.9870000000005 178.52300000000005 Q 1013.9470000000006 178.52300000000005 1012.6870000000006 180.27300000000005 Q 1011.4370000000006 182.02300000000005 1011.4370000000006 185.78300000000004 M 1025.4570000000006 185.81300000000005 Q 1025.4570000000006 183.07300000000004 1026.0970000000007 181.26300000000003 Q 1026.7370000000008 179.44300000000004 1027.7770000000007 178.37300000000005 Q 1028.8170000000007 177.30300000000005 1030.1270000000006 176.85300000000004 Q 1031.4270000000006 176.41300000000004 1032.7170000000006 176.41300000000004 Q 1033.9670000000006 176.41300000000004 1035.2570000000005 176.84300000000005 Q 1036.5370000000005 177.26300000000003 1037.5770000000005 178.34300000000005 Q 1038.6170000000004 179.41300000000004 1039.2770000000005 181.22300000000004 Q 1039.9370000000006 183.04300000000003 1039.9370000000006 185.81300000000005 Q 1039.9370000000006 188.58300000000006 1039.2970000000005 190.37300000000005 Q 1038.6570000000004 192.15300000000005 1037.6270000000004 193.19300000000004 Q 1036.6070000000004 194.23300000000003 1035.3070000000005 194.64300000000003 Q 1033.9970000000005 195.05300000000003 1032.7170000000006 195.05300000000003 Q 1031.4570000000006 195.05300000000003 1030.1570000000006 194.64300000000003 Q 1028.8470000000007 194.23300000000003 1027.8170000000007 193.17300000000003 Q 1026.7770000000007 192.11300000000003 1026.1170000000006 190.33300000000003 Q 1025.4570000000006 188.55300000000003 1025.4570000000006 185.81300000000002 M 1028.2270000000005 185.81300000000002 Q 1028.2270000000005 189.573 1029.4670000000006 191.293 Q 1030.6970000000006 193.013 1032.7470000000005 193.013 Q 1034.7870000000005 193.013 1035.9970000000005 191.323 Q 1037.1970000000006 189.643 1037.1970000000006 185.81300000000002 Q 1037.1970000000006 183.90300000000002 1036.8670000000006 182.513 Q 1036.5370000000007 181.133 1035.9470000000006 180.223 Q 1035.3570000000004 179.31300000000002 1034.5270000000005 178.883 Q 1033.7070000000006 178.453 1032.7170000000006 178.453 Q 1030.7670000000005 178.453 1029.4970000000005 180.25300000000001 Q 1028.2270000000005 182.05300000000003 1028.2270000000005 185.81300000000002 M 1044.0970000000004 185.81300000000002 Q 1044.0970000000004 183.073 1044.7370000000005 181.263 Q 1045.3870000000006 179.443 1046.4270000000006 178.37300000000002 Q 1047.4670000000006 177.30300000000003 1048.7670000000005 176.853 Q 1050.0670000000005 176.413 1051.3570000000004 176.413 Q 1052.6070000000004 176.413 1053.8970000000004 176.84300000000002 Q 1055.1870000000004 177.263 1056.2270000000003 178.34300000000002 Q 1057.2670000000003 179.413 1057.9270000000004 181.223 Q 1058.5870000000004 183.043 1058.5870000000004 185.81300000000002 Q 1058.5870000000004 188.58300000000003 1057.9370000000004 190.37300000000002 Q 1057.2970000000003 192.15300000000002 1056.2770000000003 193.193 Q 1055.2470000000003 194.233 1053.9470000000003 194.643 Q 1052.6470000000004 195.053 1051.3570000000004 195.053 Q 1050.1070000000004 195.053 1048.7970000000005 194.643 Q 1047.4970000000005 194.233 1046.4570000000006 193.173 Q 1045.4170000000006 192.113 1044.7570000000005 190.333 Q 1044.0970000000004 188.553 1044.0970000000004 185.813 M 1046.8670000000004 185.813 Q 1046.8670000000004 189.57299999999998 1048.1070000000004 191.29299999999998 Q 1049.3470000000004 193.01299999999998 1051.3870000000004 193.01299999999998 Q 1053.4370000000004 193.01299999999998 1054.6370000000004 191.32299999999998 Q 1055.8470000000004 189.64299999999997 1055.8470000000004 185.813 Q 1055.8470000000004 183.903 1055.5170000000005 182.51299999999998 Q 1055.1870000000006 181.13299999999998 1054.5870000000004 180.22299999999998 Q 1053.9970000000005 179.313 1053.1770000000004 178.88299999999998 Q 1052.3470000000004 178.45299999999997 1051.3570000000004 178.45299999999997 Q 1049.4070000000004 178.45299999999997 1048.1370000000004 180.253 Q 1046.8670000000004 182.053 1046.8670000000004 185.813 M 1063.5970000000004 194.72299999999998 L 1063.5970000000004 172.613 L 1061.1570000000004 172.613 L 1061.4870000000003 170.473 L 1066.2370000000003 170.473 L 1066.2370000000003 194.723 Z M 1090.1970000000003 171.29299999999998 L 1088.9470000000003 173.07299999999998 Q 1087.8870000000004 172.38299999999998 1086.7370000000003 172.38299999999998 Q 1085.5170000000003 172.38299999999998 1085.0370000000003 173.063 Q 1084.5570000000002 173.73299999999998 1084.5570000000002 174.893 L 1084.5570000000002 176.903 L 1088.6770000000001 176.903 L 1088.6770000000001 179.053 L 1084.5570000000002 179.053 L 1084.5570000000002 194.72299999999998 L 1081.9170000000001 194.72299999999998 L 1081.9170000000001 179.053 L 1079.1070000000002 179.053 L 1079.4370000000001 176.903 L 1081.9170000000001 176.903 L 1081.9170000000001 174.82299999999998 Q 1081.9170000000001 172.813 1083.0870000000002 171.51299999999998 Q 1084.2570000000003 170.20299999999997 1086.7370000000003 170.20299999999997 Q 1087.6870000000004 170.20299999999997 1088.5970000000002 170.52299999999997 Q 1089.5070000000003 170.83299999999997 1090.1970000000001 171.29299999999998 M 1102.5770000000002 190.433 L 1104.6570000000002 191.72299999999998 Q 1103.7970000000003 193.07299999999998 1102.247 194.063 Q 1100.697 195.053 1098.3870000000002 195.053 Q 1096.7670000000003 195.053 1095.4470000000001 194.513 Q 1094.1270000000002 193.963 1093.1670000000001 192.84300000000002 Q 1092.207 191.72300000000004 1091.6870000000001 190.02300000000002 Q 1091.1570000000002 188.32300000000004 1091.1570000000002 185.98300000000003 Q 1091.1570000000002 183.47300000000004 1091.6970000000001 181.65300000000002 Q 1092.247 179.84300000000002 1093.217 178.67300000000003 Q 1094.1870000000001 177.50300000000004 1095.497 176.95300000000003 Q 1096.797 176.41300000000004 1098.287 176.41300000000004 Q 1099.9370000000001 176.41300000000004 1101.1670000000001 176.95300000000003 Q 1102.4070000000002 177.50300000000004 1103.237 178.70300000000003 Q 1104.057 179.90300000000002 1104.467 181.79300000000003 Q 1104.8870000000002 183.67300000000003 1104.8870000000002 186.34300000000005 L 1093.8570000000002 186.34300000000005 Q 1093.8970000000002 188.22300000000004 1094.2770000000003 189.49300000000005 Q 1094.6570000000004 190.76300000000006 1095.2770000000003 191.52300000000005 Q 1095.9070000000004 192.28300000000004 1096.7470000000003 192.61300000000006 Q 1097.5870000000002 192.94300000000007 1098.5470000000003 192.94300000000007 Q 1099.3370000000002 192.94300000000007 1099.9870000000003 192.69300000000007 Q 1100.6270000000004 192.44300000000007 1101.1170000000004 192.08300000000006 Q 1101.6170000000004 191.72300000000004 1101.9770000000003 191.27300000000005 Q 1102.3470000000002 190.83300000000006 1102.5770000000002 190.43300000000005 M 1098.2870000000003 178.45300000000006 Q 1096.4370000000004 178.45300000000006 1095.3170000000002 179.84300000000005 Q 1094.1870000000001 181.22300000000004 1093.9270000000001 184.23300000000003 L 1102.1470000000002 184.23300000000003 Q 1102.0770000000002 182.61300000000003 1101.7970000000003 181.51300000000003 Q 1101.5170000000003 180.40300000000002 1101.0270000000003 179.72300000000004 Q 1100.5270000000003 179.05300000000005 1099.8470000000002 178.75300000000004 Q 1099.1770000000001 178.45300000000003 1098.2870000000003 178.45300000000003 M 1109.6370000000002 194.72300000000004 L 1109.6370000000002 172.61300000000006 L 1107.1970000000001 172.61300000000006 L 1107.527 170.47300000000007 L 1112.277 170.47300000000007 L 1112.277 194.72300000000007 Z M 1117.8670000000002 194.72300000000004 L 1117.8670000000002 172.61300000000006 L 1115.4170000000001 172.61300000000006 L 1115.747 170.47300000000007 L 1120.507 170.47300000000007 L 1120.507 194.72300000000007 Z M 1137.1970000000001 194.72300000000004 L 1134.9270000000001 194.72300000000004 L 1134.787 192.74300000000005 Q 1134.067 193.73300000000006 1132.897 194.39300000000006 Q 1131.7269999999999 195.05300000000005 1129.907 195.05300000000005 Q 1128.947 195.05300000000005 1127.9769999999999 194.77300000000005 Q 1127.0069999999998 194.49300000000005 1126.2269999999999 193.88300000000007 Q 1125.4569999999999 193.27300000000005 1124.9569999999999 192.31300000000007 Q 1124.4669999999999 191.36300000000008 1124.4669999999999 189.97300000000007 Q 1124.4669999999999 187.07300000000006 1126.857 185.38300000000007 Q 1129.247 183.70300000000006 1134.557 183.60300000000007 L 1134.557 182.12300000000008 Q 1134.557 180.53300000000007 1133.787 179.49300000000008 Q 1133.007 178.4530000000001 1131.157 178.4530000000001 Q 1129.7469999999998 178.4530000000001 1128.807 179.1630000000001 Q 1127.857 179.8730000000001 1127.367 181.2230000000001 L 1124.9569999999999 180.3030000000001 Q 1125.7469999999998 178.5230000000001 1127.337 177.4630000000001 Q 1128.917 176.4130000000001 1131.227 176.4130000000001 Q 1132.747 176.4130000000001 1133.8670000000002 176.8230000000001 Q 1134.9870000000003 177.2330000000001 1135.737 177.9430000000001 Q 1136.477 178.6530000000001 1136.837 179.6230000000001 Q 1137.197 180.6030000000001 1137.197 181.7230000000001 Z M 1130.6370000000002 192.94300000000004 Q 1131.8870000000002 192.94300000000004 1132.8470000000002 192.38300000000004 Q 1133.7970000000003 191.82300000000004 1134.5570000000002 190.96300000000005 L 1134.5570000000002 185.68300000000005 Q 1130.7670000000003 185.75300000000004 1128.9870000000003 186.75300000000004 Q 1127.1970000000003 187.76300000000003 1127.1970000000003 189.77300000000005 Q 1127.1970000000003 191.45300000000006 1128.2070000000003 192.20300000000006 Q 1129.2170000000003 192.94300000000007 1130.6370000000004 192.94300000000007" stroke-linecap="round" />
</g>
		<g transform="matrix(1 0 0 1 0 0)"  >
<path style="stroke: rgb(255,255,255); stroke-opacity: 0; stroke-width: 1; stroke-dasharray: none; stroke-linecap: butt; stroke-dashoffset: 0; stroke-linejoin: miter; stroke-miterlimit: 4; fill: rgb(255,255,255); fill-opacity: 0; fill-rule: nonzero; opacity: 1;" vector-effect="non-scaling-stroke"  transform=" translate(-1000, -101.5)" d="M 720 0 L 1280 0 L 1280 203 L 720 203 z" stroke-linecap="round" />
</g>
</g>
</g>
</svg>